<svg xmlns="http://www.w3.org/2000/svg" xmlns:xlink="http://www.w3.org/1999/xlink" width="378.203" height="483.337" viewBox="0 0 378.203 483.337">
  <defs>
    <style>
      .cls-1 {
        fill: url(#linear-gradient);
      }

      .cls-2 {
        clip-path: url(#clip-path);
      }

      .cls-3 {
        fill: url(#linear-gradient-2);
      }

      .cls-4 {
        opacity: 0.16;
      }

      .cls-5 {
        fill: url(#linear-gradient-3);
      }

      .cls-6 {
        fill: url(#linear-gradient-4);
      }
    </style>
    <linearGradient id="linear-gradient" y1="0.55" x2="0.961" y2="0.249" gradientUnits="objectBoundingBox">
      <stop offset="0" stop-color="#20323e"/>
      <stop offset="0" stop-color="#1d3340"/>
      <stop offset="0.054" stop-color="#1d3341"/>
      <stop offset="0.392" stop-color="#223553"/>
      <stop offset="1" stop-color="#844662"/>
    </linearGradient>
    <clipPath id="clip-path">
      <path id="Trazado_55" data-name="Trazado 55" class="cls-1" d="M0,0H450.61s73.637,198.569,0,378.08c-.08.277-450.61,0-450.61,0Z" transform="translate(374 -3.891) rotate(90)"/>
    </clipPath>
    <linearGradient id="linear-gradient-2" x1="0.298" y1="0.756" x2="0.472" y2="0.461" gradientUnits="objectBoundingBox">
      <stop offset="0" stop-color="#20323e"/>
      <stop offset="1" stop-color="#7b465f"/>
    </linearGradient>
    <linearGradient id="linear-gradient-3" x1="0.298" y1="0.756" x2="0.602" y2="0.2" xlink:href="#linear-gradient-2"/>
    <linearGradient id="linear-gradient-4" x1="-0.108" y1="1.129" x2="0.488" y2="0.454" xlink:href="#linear-gradient-2"/>
  </defs>
  <g id="Enmascarar_grupo_5" data-name="Enmascarar grupo 5" class="cls-2" transform="translate(4.203 3.891)">
    <g id="Grupo_15" data-name="Grupo 15">
      <path id="Trazado_51" data-name="Trazado 51" class="cls-3" d="M-36.052,32.08c-80.757-259.431,801.609,123.105,801.609,298.649s-83.45,242.406-349.4,351.194C364.917,700.77,186.98,743.33,186.98,743.33L83.727,402.549S44.705,291.51-36.052,32.08Z" transform="translate(-8.736 -283.297) rotate(20)"/>
      <path id="Trazado_54" data-name="Trazado 54" class="cls-4" d="M-34,245.94,103.651-57.414,136.607.892l70.135-111.541L498.5,245.94Z" transform="translate(97.824 201.577)"/>
      <path id="Trazado_50" data-name="Trazado 50" class="cls-5" d="M-38.228-5.922c-28.74-89.6,109.685-13.875,254.687,57.9C309.229,97.891,429.448,124.4,429.448,163.16c0,99.385-48.687,137.24-203.848,198.831-29.895,10.671-133.707,34.767-133.707,34.767L31.654,203.822S8.888,140.956-38.228-5.922Z" transform="translate(-46.338 94.063) rotate(20)"/>
      <path id="Trazado_49" data-name="Trazado 49" class="cls-6" d="M-39.5-25.685C-67-114.032,233.486,16.238,233.486,76.018s-28.418,82.55-118.986,119.6c-17.45,6.418-78.045,20.912-78.045,20.912L1.293,100.476S-12,62.662-39.5-25.685Z" transform="translate(11.067 288.905) rotate(19)"/>
    </g>
  </g>
</svg>
