<svg xmlns="http://www.w3.org/2000/svg" xmlns:xlink="http://www.w3.org/1999/xlink" width="378.203" height="483.337" viewBox="0 0 378.203 483.337">
  <defs>
    <style>
      .cls-1 {
        fill: url(#linear-gradient);
      }

      .cls-2 {
        clip-path: url(#clip-path);
      }

      .cls-3 {
        fill: url(#linear-gradient-2);
      }

      .cls-4 {
        opacity: 0.1;
      }

      .cls-5 {
        fill: url(#linear-gradient-3);
      }

      .cls-6 {
        fill: url(#linear-gradient-4);
      }
    </style>
    <linearGradient id="linear-gradient" y1="0.55" x2="0.961" y2="0.249" gradientUnits="objectBoundingBox">
      <stop offset="0" stop-color="#20323e"/>
      <stop offset="0" stop-color="#1d3340"/>
      <stop offset="0.054" stop-color="#1d3341"/>
      <stop offset="0.392" stop-color="#223553"/>
      <stop offset="1" stop-color="#844662"/>
    </linearGradient>
    <clipPath id="clip-path">
      <path id="Trazado_55" data-name="Trazado 55" class="cls-1" d="M0,0H450.61s73.637,198.569,0,378.08c-.08.277-450.61,0-450.61,0Z" transform="translate(374 -3.891) rotate(90)"/>
    </clipPath>
    <linearGradient id="linear-gradient-2" x1="1.019" y1="0.424" x2="-0.016" y2="0.463" gradientUnits="objectBoundingBox">
      <stop offset="0" stop-color="#70d0ca"/>
      <stop offset="1" stop-color="#188aa8"/>
    </linearGradient>
    <linearGradient id="linear-gradient-3" x1="0.5" y1="0.109" x2="0.492" y2="0.63" gradientUnits="objectBoundingBox">
      <stop offset="0" stop-color="#71d1cb"/>
      <stop offset="1" stop-color="#1a8ba8"/>
    </linearGradient>
    <linearGradient id="linear-gradient-4" x1="0.5" x2="0.5" y2="1" gradientUnits="objectBoundingBox">
      <stop offset="0" stop-color="#71d2cb"/>
      <stop offset="1" stop-color="#188aa8"/>
    </linearGradient>
  </defs>
  <g id="Enmascarar_grupo_5" data-name="Enmascarar grupo 5" class="cls-2" transform="translate(4.203 3.891)">
    <g id="Grupo_17" data-name="Grupo 17" transform="translate(-58.018 -22.248)">
      <path id="Trazado_48" data-name="Trazado 48" class="cls-3" d="M0,0H469.521s76.728,208.634,0,397.243c1.751,2.522-469.521,0-469.521,0Z" transform="translate(453.016) rotate(90)"/>
      <path id="Unión_1" data-name="Unión 1" class="cls-4" d="M107.292,175.263a14.012,14.012,0,0,1-12.408-20.51H17.669A18,18,0,0,1,3.52,125.627L97.081,6.66a18,18,0,0,1,28.3,0l42.779,54.4,29.455-37.522a14,14,0,0,1,22.025,0l41.787,53.231,25.808-32.829a14.071,14.071,0,0,1,22.128,0l62.663,79.711a14.1,14.1,0,0,1-11.065,22.812H316.134l4.835,6.16a14,14,0,0,1-11.012,22.645Z" transform="translate(5.077 211.138)"/>
      <path id="Trazado_58" data-name="Trazado 58" class="cls-5" d="M338.774-64.957c-67.34-8.633-144.989,30.077-144.989,30.077S-23.741,55.77,2.124,55.77l376.138,4.712c25.865,0,26.071-19.57,26.071-45.435v-1.8C404.332-12.619,406.114-56.324,338.774-64.957Z" transform="translate(87.973 389.101)"/>
      <path id="Trazado_57" data-name="Trazado 57" class="cls-6" d="M75.674-64.764C153.412-74.73,243.05-30.043,243.05-30.043S567.9,126.084,538.043,126.084L85.122,141.546C55.263,141.546-.007,57.453-.007,27.595V25.515C-.007-4.343-2.064-54.8,75.674-64.764Z" transform="translate(0.013 369.322)"/>
    </g>
  </g>
</svg>
