<svg xmlns="http://www.w3.org/2000/svg" xmlns:xlink="http://www.w3.org/1999/xlink" width="378.203" height="483.337" viewBox="0 0 378.203 483.337">
  <defs>
    <style>
      .cls-1 {
        fill: url(#linear-gradient);
      }

      .cls-2 {
        clip-path: url(#clip-path);
      }

      .cls-3 {
        fill: url(#linear-gradient-2);
      }

      .cls-4 {
        opacity: 0.1;
      }

      .cls-5 {
        fill: url(#linear-gradient-3);
      }

      .cls-6 {
        fill: url(#linear-gradient-4);
      }

      .cls-7 {
        opacity: 0.6;
      }

      .cls-8 {
        fill: #fff;
      }
    </style>
    <linearGradient id="linear-gradient" y1="0.55" x2="0.961" y2="0.249" gradientUnits="objectBoundingBox">
      <stop offset="0" stop-color="#f0846e"/>
      <stop offset="1" stop-color="#cb5c90"/>
    </linearGradient>
    <clipPath id="clip-path">
      <path id="Trazado_75" data-name="Trazado 75" class="cls-1" d="M0,0H450.61s73.637,198.569,0,378.08c-.08.277-450.61,0-450.61,0Z" transform="translate(374 -3.891) rotate(90)"/>
    </clipPath>
    <linearGradient id="linear-gradient-2" x1="0.768" y1="0.461" x2="0.159" y2="0.452" gradientUnits="objectBoundingBox">
      <stop offset="0" stop-color="#6e3483"/>
      <stop offset="1" stop-color="#391b79"/>
    </linearGradient>
    <linearGradient id="linear-gradient-3" x1="0.51" y1="-0.103" x2="0.441" y2="0.359" xlink:href="#linear-gradient-2"/>
    <linearGradient id="linear-gradient-4" x1="0.462" y1="0.309" x2="0.5" y2="0.905" xlink:href="#linear-gradient-2"/>
  </defs>
  <g id="noche" class="cls-2" transform="translate(4.203 3.891)">
    <g id="Grupo_20" data-name="Grupo 20" transform="translate(-73.018 -17.248)">
      <path id="Trazado_71" data-name="Trazado 71" class="cls-3" d="M0,0H469.521s76.728,208.634,0,397.243c1.751,2.522-469.521,0-469.521,0Z" transform="translate(453.016) rotate(90)"/>
      <path id="Unión_4" data-name="Unión 4" class="cls-4" d="M107.292,175.263a14.012,14.012,0,0,1-12.408-20.51H17.669A18,18,0,0,1,3.52,125.627L97.081,6.66a18,18,0,0,1,28.3,0l42.779,54.4,29.455-37.522a14,14,0,0,1,22.025,0l41.787,53.231,25.808-32.829a14.071,14.071,0,0,1,22.128,0l62.663,79.711a14.1,14.1,0,0,1-11.065,22.812H316.134l4.835,6.16a14,14,0,0,1-11.012,22.645Z" transform="translate(5.077 211.138)"/>
      <path id="Trazado_73" data-name="Trazado 73" class="cls-5" d="M338.774-64.957c-67.34-8.633-144.989,30.077-144.989,30.077S-23.741,55.77,2.124,55.77l376.138,4.712c25.865,0,26.071-19.57,26.071-45.435v-1.8C404.332-12.619,406.114-56.324,338.774-64.957Z" transform="translate(87.973 389.101)"/>
      <path id="Trazado_74" data-name="Trazado 74" class="cls-6" d="M75.674-64.764C153.412-74.73,243.05-30.043,243.05-30.043S567.9,126.084,538.043,126.084L85.122,141.546C55.263,141.546-.007,57.453-.007,27.595V25.515C-.007-4.343-2.064-54.8,75.674-64.764Z" transform="translate(0.013 369.322)"/>
    </g>
    <g id="Grupo_21" data-name="Grupo 21" class="cls-7" transform="translate(-14.71 -7)">
      <ellipse id="Elipse_10" data-name="Elipse 10" class="cls-8" cx="1" cy="1.5" rx="1" ry="1.5" transform="translate(32.71 60)"/>
      <circle id="Elipse_11" data-name="Elipse 11" class="cls-8" cx="1.18" cy="1.18" r="1.18" transform="matrix(-0.966, 0.259, -0.259, -0.966, 358.71, 127.944)"/>
      <ellipse id="Elipse_12" data-name="Elipse 12" class="cls-8" cx="1.5" cy="1" rx="1.5" ry="1" transform="translate(81.71 100)"/>
      <circle id="Elipse_13" data-name="Elipse 13" class="cls-8" cx="1.18" cy="1.18" r="1.18" transform="matrix(-0.966, 0.259, -0.259, -0.966, 300.475, 102.027)"/>
      <circle id="Elipse_14" data-name="Elipse 14" class="cls-8" cx="1" cy="1" r="1" transform="translate(73.71 33)"/>
      <circle id="Elipse_15" data-name="Elipse 15" class="cls-8" cx="1.18" cy="1.18" r="1.18" transform="matrix(-0.966, 0.259, -0.259, -0.966, 325.853, 164.835)"/>
      <circle id="Elipse_16" data-name="Elipse 16" class="cls-8" cx="1" cy="1" r="1" transform="translate(169.71 84)"/>
      <circle id="Elipse_17" data-name="Elipse 17" class="cls-8" cx="1.18" cy="1.18" r="1.18" transform="matrix(-0.966, 0.259, -0.259, -0.966, 220.434, 140.57)"/>
      <ellipse id="Elipse_18" data-name="Elipse 18" class="cls-8" cx="1" cy="1.5" rx="1" ry="1.5" transform="translate(295.71 40)"/>
      <circle id="Elipse_19" data-name="Elipse 19" class="cls-8" cx="1.18" cy="1.18" r="1.18" transform="matrix(-0.966, 0.259, -0.259, -0.966, 109.816, 215.395)"/>
      <circle id="Elipse_20" data-name="Elipse 20" class="cls-8" cx="1.5" cy="1.5" r="1.5" transform="translate(332.71 175)"/>
      <circle id="Elipse_21" data-name="Elipse 21" class="cls-8" cx="1.18" cy="1.18" r="1.18" transform="matrix(-0.966, 0.259, -0.259, -0.966, 38.247, 94.135)"/>
      <ellipse id="Elipse_22" data-name="Elipse 22" class="cls-8" cx="1.5" cy="1" rx="1.5" ry="1" transform="translate(185.71 14)"/>
      <circle id="Elipse_23" data-name="Elipse 23" class="cls-8" cx="1.18" cy="1.18" r="1.18" transform="matrix(-0.966, 0.259, -0.259, -0.966, 222.496, 212.068)"/>
      <ellipse id="Elipse_24" data-name="Elipse 24" class="cls-8" cx="1.5" cy="1" rx="1.5" ry="1" transform="translate(131.71 134)"/>
      <circle id="Elipse_25" data-name="Elipse 25" class="cls-8" cx="1.18" cy="1.18" r="1.18" transform="matrix(-0.966, 0.259, -0.259, -0.966, 243.767, 81.807)"/>
    </g>
  </g>
</svg>
