<svg xmlns="http://www.w3.org/2000/svg" xmlns:xlink="http://www.w3.org/1999/xlink" width="4051.508" height="5177.767" viewBox="0 0 4051.508 5177.767">
  <defs>
    <linearGradient id="linear-gradient" y1="0.55" x2="0.961" y2="0.249" gradientUnits="objectBoundingBox">
      <stop offset="0" stop-color="#f0846e"/>
      <stop offset="1" stop-color="#cb5c90"/>
    </linearGradient>
    <clipPath id="clip-path">
      <path id="Trazado_75" data-name="Trazado 75" d="M0,0H4827.171s788.839,2127.181,0,4050.189c-.861,2.968-4827.171,0-4827.171,0Z" transform="translate(4051.508 0) rotate(90)" fill="url(#linear-gradient)"/>
    </clipPath>
    <linearGradient id="linear-gradient-2" x1="0.768" y1="0.461" x2="0.159" y2="0.452" gradientUnits="objectBoundingBox">
      <stop offset="0" stop-color="#6e3483"/>
      <stop offset="1" stop-color="#391b79"/>
    </linearGradient>
    <linearGradient id="linear-gradient-3" x1="0.51" y1="-0.103" x2="0.441" y2="0.359" xlink:href="#linear-gradient-2"/>
    <linearGradient id="linear-gradient-4" x1="0.462" y1="0.309" x2="0.5" y2="0.905" xlink:href="#linear-gradient-2"/>
  </defs>
  <g id="noche" transform="translate(-0.001)" clip-path="url(#clip-path)">
    <g id="Grupo_20" data-name="Grupo 20" transform="translate(-861.675 -143.088)">
      <path id="Trazado_71" data-name="Trazado 71" d="M0,0H5029.761s821.946,2235,0,4255.474c18.759,27.021-5029.761,0-5029.761,0Z" transform="translate(4977.437) rotate(90)" fill="url(#linear-gradient-2)"/>
      <path id="Unión_4" data-name="Unión 4" d="M1048.627,1982.057a14,14,0,0,1-11.012-22.644l154.7-197.069H8.245A18,18,0,0,1-5.9,1733.217L1356.275,1.153a18,18,0,0,1,28.3,0l595.688,757.44,422.494-538.207a14,14,0,0,1,22.025,0l554.6,706.5L3255.846,575.2c60.388-76.818,176.665-76.818,237.053,0l671.273,853.907c77.868,99.055,7.384,244.376-118.528,244.376H3565.466l224.452,285.926a14,14,0,0,1-11.012,22.644Z" transform="translate(0 2157.282)" opacity="0.1"/>
      <path id="Trazado_73" data-name="Trazado 73" d="M3629.246-52.761c-721.385-92.485-1553.2,322.2-1553.2,322.2s-2330.254,971.1-2053.175,971.1l4029.387,50.481c277.079,0,279.285-209.643,279.285-486.721V785C4331.546,507.92,4350.63,39.725,3629.246-52.761Z" transform="translate(1066.782 3525.156)" fill="url(#linear-gradient-3)"/>
      <path id="Trazado_74" data-name="Trazado 74" d="M810.784-50.684c832.772-106.766,1793.02,371.95,1793.02,371.95S6083.781,1993.774,5763.919,1993.774L911.99,2159.417C592.128,2159.417.043,1258.568.043,938.707V916.431C.043,596.57-21.988,56.082,810.784-50.684Z" transform="translate(124.502 3313.279)" fill="url(#linear-gradient-4)"/>
    </g>
    <g id="Grupo_21" data-name="Grupo 21" transform="translate(238.859 118.304)" opacity="0.6">
      <ellipse id="Elipse_10" data-name="Elipse 10" cx="10" cy="15.5" rx="10" ry="15.5" transform="translate(0.22 491.756)" fill="#fff"/>
      <circle id="Elipse_11" data-name="Elipse 11" cx="12.636" cy="12.636" r="12.636" transform="matrix(-0.966, 0.259, -0.259, -0.966, 3491.274, 1218.986)" fill="#fff"/>
      <ellipse id="Elipse_12" data-name="Elipse 12" cx="16" cy="10.5" rx="16" ry="10.5" transform="translate(522.22 917.756)" fill="#fff"/>
      <circle id="Elipse_13" data-name="Elipse 13" cx="12.636" cy="12.636" r="12.636" transform="matrix(-0.966, 0.259, -0.259, -0.966, 2867.43, 941.353)" fill="#fff"/>
      <circle id="Elipse_14" data-name="Elipse 14" cx="10.5" cy="10.5" r="10.5" transform="translate(439.22 202.756)" fill="#fff"/>
      <circle id="Elipse_15" data-name="Elipse 15" cx="12.636" cy="12.636" r="12.636" transform="matrix(-0.966, 0.259, -0.259, -0.966, 3139.293, 1614.186)" fill="#fff"/>
      <circle id="Elipse_16" data-name="Elipse 16" cx="10.5" cy="10.5" r="10.5" transform="translate(1466.22 749.756)" fill="#fff"/>
      <circle id="Elipse_17" data-name="Elipse 17" cx="12.636" cy="12.636" r="12.636" transform="matrix(-0.966, 0.259, -0.259, -0.966, 2009.995, 1354.251)" fill="#fff"/>
      <ellipse id="Elipse_18" data-name="Elipse 18" cx="8.5" cy="12.5" rx="8.5" ry="12.5" transform="translate(2818.22 275.756)" fill="#fff"/>
      <circle id="Elipse_19" data-name="Elipse 19" cx="12.636" cy="12.636" r="12.636" transform="matrix(-0.966, 0.259, -0.259, -0.966, 824.99, 2155.808)" fill="#fff"/>
      <circle id="Elipse_20" data-name="Elipse 20" cx="15" cy="15" r="15" transform="translate(3211.221 1723.756)" fill="#fff"/>
      <circle id="Elipse_21" data-name="Elipse 21" cx="12.636" cy="12.636" r="12.636" transform="matrix(-0.966, 0.259, -0.259, -0.966, 58.306, 856.806)" fill="#fff"/>
      <ellipse id="Elipse_22" data-name="Elipse 22" cx="13" cy="8.5" rx="13" ry="8.5" transform="translate(1637.22 -0.244)" fill="#fff"/>
      <circle id="Elipse_23" data-name="Elipse 23" cx="12.636" cy="12.636" r="12.636" transform="matrix(-0.966, 0.259, -0.259, -0.966, 2032.078, 2120.176)" fill="#fff"/>
      <ellipse id="Elipse_24" data-name="Elipse 24" cx="14.5" cy="9.5" rx="14.5" ry="9.5" transform="translate(1060.221 1284.756)" fill="#fff"/>
      <circle id="Elipse_25" data-name="Elipse 25" cx="12.636" cy="12.636" r="12.636" transform="matrix(-0.966, 0.259, -0.259, -0.966, 2259.949, 724.749)" fill="#fff"/>
    </g>
  </g>
</svg>
