<svg xmlns="http://www.w3.org/2000/svg" xmlns:xlink="http://www.w3.org/1999/xlink" width="4051.508" height="5177.767" viewBox="0 0 4051.508 5177.767">
  <defs>
    <linearGradient id="linear-gradient" y1="0.55" x2="0.961" y2="0.249" gradientUnits="objectBoundingBox">
      <stop offset="0" stop-color="#f0846e"/>
      <stop offset="1" stop-color="#cb5c90"/>
    </linearGradient>
    <clipPath id="clip-path">
      <path id="Trazado_65" data-name="Trazado 65" d="M0,0H4827.171s788.839,2127.181,0,4050.189c-.861,2.968-4827.171,0-4827.171,0Z" transform="translate(4051.508 0) rotate(90)" fill="url(#linear-gradient)"/>
    </clipPath>
    <linearGradient id="linear-gradient-2" x1="0.836" y1="0.451" x2="0.194" y2="0.445" xlink:href="#linear-gradient"/>
    <linearGradient id="linear-gradient-3" x1="0.555" y1="-0.3" x2="0.5" y2="0.387" xlink:href="#linear-gradient"/>
    <linearGradient id="linear-gradient-4" x1="0.5" y1="0" x2="0.5" y2="0.905" xlink:href="#linear-gradient"/>
  </defs>
  <g id="tarde" transform="translate(-0.001)" clip-path="url(#clip-path)">
    <g id="Grupo_18" data-name="Grupo 18" transform="translate(-861.675 -143.088)">
      <path id="Trazado_61" data-name="Trazado 61" d="M0,0H5029.761s821.946,2235,0,4255.474c18.759,27.021-5029.761,0-5029.761,0Z" transform="translate(4977.437) rotate(90)" fill="url(#linear-gradient-2)"/>
      <path id="Unión_2" data-name="Unión 2" d="M1048.627,1982.057a14,14,0,0,1-11.012-22.644l154.7-197.069H8.245A18,18,0,0,1-5.9,1733.217L1356.275,1.153a18,18,0,0,1,28.3,0l595.688,757.44,422.494-538.207a14,14,0,0,1,22.025,0l554.6,706.5L3255.846,575.2c60.388-76.818,176.665-76.818,237.053,0l671.273,853.907c77.868,99.055,7.384,244.376-118.528,244.376H3565.466l224.452,285.926a14,14,0,0,1-11.012,22.644Z" transform="translate(0 2157.282)" opacity="0.1"/>
      <path id="Trazado_63" data-name="Trazado 63" d="M3629.246-52.761c-721.385-92.485-1553.2,322.2-1553.2,322.2s-2330.254,971.1-2053.175,971.1l4029.387,50.481c277.079,0,279.285-209.643,279.285-486.721V785C4331.546,507.92,4350.63,39.725,3629.246-52.761Z" transform="translate(1066.782 3525.156)" fill="url(#linear-gradient-3)"/>
      <path id="Trazado_64" data-name="Trazado 64" d="M810.784-50.684c832.772-106.766,1793.02,371.95,1793.02,371.95S6083.781,1993.774,5763.919,1993.774L911.99,2159.417C592.128,2159.417.043,1258.568.043,938.707V916.431C.043,596.57-21.988,56.082,810.784-50.684Z" transform="translate(124.502 3313.279)" fill="url(#linear-gradient-4)"/>
    </g>
  </g>
</svg>
