<svg xmlns="http://www.w3.org/2000/svg" xmlns:xlink="http://www.w3.org/1999/xlink" width="4051.508" height="5177.767" viewBox="0 0 4051.508 5177.767">
  <defs>
    <linearGradient id="linear-gradient" x1="0.02" y1="0.422" x2="0.952" y2="0.454" gradientUnits="objectBoundingBox">
      <stop offset="0" stop-color="#fc8e6d"/>
      <stop offset="1" stop-color="#fea172"/>
    </linearGradient>
    <clipPath id="clip-path">
      <path id="Trazado_89" data-name="Trazado 89" d="M0,0H4827.171s788.839,2127.181,0,4050.189c-.861,2.968-4827.171,0-4827.171,0Z" transform="translate(4051.508 -38) rotate(90)" fill="url(#linear-gradient)"/>
    </clipPath>
    <linearGradient id="linear-gradient-2" x1="0.754" y1="0.51" x2="0.098" y2="0.514" gradientUnits="objectBoundingBox">
      <stop offset="0" stop-color="#fecd62"/>
      <stop offset="1" stop-color="#f18749"/>
    </linearGradient>
    <linearGradient id="linear-gradient-3" x1="0.754" y1="0.546" x2="0.695" y2="0.454" xlink:href="#linear-gradient-2"/>
    <linearGradient id="linear-gradient-4" x1="0.836" y1="1.183" x2="0.12" y2="0.21" xlink:href="#linear-gradient-2"/>
  </defs>
  <g id="tarde" transform="translate(-0.001 38)" clip-path="url(#clip-path)">
    <g id="Grupo_32" data-name="Grupo 32" transform="translate(8.966 49.726)">
      <path id="Trazado_85" data-name="Trazado 85" d="M0,0H5139.735s839.917,2283.865,0,4348.518c19.169,27.611-5139.735,0-5139.735,0Z" transform="translate(4201.666 -201.169) rotate(90)" fill="url(#linear-gradient-2)"/>
    </g>
    <path id="Trazado_87" data-name="Trazado 87" d="M3709.141,384.035c994.869,0,3503,431.154,2327.822,1313.916C4843.693,2594.305,2194.1,1539.808,27.542,2836.578,27.542,826.742,1699.3,384.035,3709.141,384.035Z" transform="translate(-3754.697 2953.797)" fill="url(#linear-gradient-3)"/>
    <path id="Trazado_88" data-name="Trazado 88" d="M3050.532,384.035c816.9,0,2950.1,434.688,2381.93,1163.661C3642.193,3166.443,1806.516,1333.049,27.542,2397.838,27.542,747.545,1400.239,384.035,3050.532,384.035Z" transform="translate(-817.815 3065.497)" fill="url(#linear-gradient-4)"/>
    <g id="Grupo_33" data-name="Grupo 33" transform="translate(3500.703 3494.162)">
      <path id="Polígono_13" data-name="Polígono 13" d="M74.014,0l74.014,134.259H0Z" transform="translate(0 65.408)" fill="#ee7a36"/>
      <path id="Polígono_14" data-name="Polígono 14" d="M67.129,0l67.129,117.046H0Z" transform="translate(6.885 37.868)" fill="#ee7a36"/>
      <path id="Polígono_15" data-name="Polígono 15" d="M49.917,0,99.833,89.506H0Z" transform="translate(24.098 0)" fill="#ee7a36"/>
    </g>
    <g id="Grupo_35" data-name="Grupo 35" transform="translate(137.347 3163.679)">
      <path id="Polígono_19" data-name="Polígono 19" d="M74.014,0l74.014,134.259H0Z" transform="translate(0 65.408)" fill="#ee7a36"/>
      <path id="Polígono_20" data-name="Polígono 20" d="M67.129,0l67.129,117.046H0Z" transform="translate(6.885 37.868)" fill="#ee7a36"/>
      <path id="Polígono_21" data-name="Polígono 21" d="M49.917,0,99.833,89.506H0Z" transform="translate(24.098)" fill="#ee7a36"/>
    </g>
    <g id="Grupo_42" data-name="Grupo 42" transform="translate(896.696 4230.273)">
      <path id="Polígono_10" data-name="Polígono 10" d="M223.176,0,446.351,400.483H0Z" transform="translate(-39 154.357)" fill="#ee7a36"/>
      <path id="Polígono_11" data-name="Polígono 11" d="M166.963,0,333.926,292.615H0Z" transform="translate(17.213 89.506)" fill="#ee7a36"/>
      <path id="Polígono_12" data-name="Polígono 12" d="M89.652,0l89.653,154.88H0Z" transform="translate(94.523 31)" fill="#ee7a36"/>
    </g>
    <path id="Trazado_95" data-name="Trazado 95" d="M397.512,0c219.54,0,397.512,179.658,397.512,401.277S617.052,802.554,397.512,802.554,0,622.9,0,401.277,177.972,0,397.512,0Z" transform="translate(2908.393 1215.235)" fill="#ddeabe" opacity="0.05"/>
    <ellipse id="Elipse_33" data-name="Elipse 33" cx="241.32" cy="243.245" rx="241.32" ry="243.245" transform="translate(3064.584 1373.267)" fill="#ddeabe" opacity="0.05"/>
    <ellipse id="Elipse_34" data-name="Elipse 34" cx="160.96" cy="162.404" rx="160.96" ry="162.404" transform="translate(3144.944 1454.108)" fill="#ddeabe"/>
  </g>
</svg>
