<svg id="Capa_1" data-name="Capa 1" xmlns="http://www.w3.org/2000/svg" viewBox="0 0 161.34 167.81"><defs><style>.cls-1{fill:#293f47;fill-rule:evenodd;}</style></defs><path class="cls-1" d="M149.05,84.87H127.46a3.6,3.6,0,0,1-.38-7.19,2.41,2.41,0,0,1,.38,0h21.59a3.6,3.6,0,0,1,.38,7.19ZM116.29,50.74a3.6,3.6,0,0,1-5.09-5.09l15.27-15.27a3.6,3.6,0,0,1,5.09,5.09ZM80.66,117.26a36,36,0,1,1,36-36h0A36,36,0,0,1,80.66,117.26Zm0-64.78a28.79,28.79,0,1,0,28.79,28.79A28.79,28.79,0,0,0,80.66,52.48Zm0-14.39a3.6,3.6,0,0,1-3.6-3.6V12.9a3.6,3.6,0,0,1,7.2,0V34.49A3.6,3.6,0,0,1,80.66,38.09ZM45.05,50.73,29.78,35.46a3.6,3.6,0,0,1,5.09-5.09L50.14,45.64a3.6,3.6,0,0,1-5,5.2ZM37.48,81.27a3.61,3.61,0,0,1-3.59,3.6H12.29a3.6,3.6,0,0,1-.38-7.19,2.41,2.41,0,0,1,.38,0h21.6a3.59,3.59,0,0,1,3.59,3.59ZM45,111.82a3.6,3.6,0,0,1,5.2,5l-.11.11L34.85,132.18a3.6,3.6,0,0,1-5.09-5.09Zm35.63,12.65a3.61,3.61,0,0,1,3.6,3.59v21.6a3.6,3.6,0,0,1-7.2,0v-21.6a3.6,3.6,0,0,1,3.61-3.59h0Zm35.65-12.66,15.27,15.26a3.6,3.6,0,1,1-5,5.2l-.11-.11L111.22,116.9a3.6,3.6,0,0,1,5.09-5.09Z"/></svg>