<svg id="Capa_1" data-name="Capa 1" xmlns="http://www.w3.org/2000/svg" viewBox="0 0 161.34 167.81"><defs><style>.cls-1{fill:#293f47;fill-rule:evenodd;}</style></defs><path class="cls-1" d="M80.64,104.46s0-.06,0-.09,0-.09,0-.14Zm35.44,10.72h-2.67a.83.83,0,0,1-.15,0,2.72,2.72,0,1,1,0-5.44h0v0H116A33.94,33.94,0,1,0,82,66.35a2.73,2.73,0,0,1-1.45,1.7,2.7,2.7,0,0,1-2.24,0,21.52,21.52,0,0,0-8.57-1.76A21.83,21.83,0,0,0,48.92,82a2.7,2.7,0,0,1-3.67,1.74,13.58,13.58,0,1,0-5.32,26.07H80.64v0H91.5a5.43,5.43,0,0,0,0-10.86h0a2.71,2.71,0,0,1-.08-5.42h-.11l.18,0a10.87,10.87,0,0,1,0,21.73c-.11,0-.21,0-.31,0l-45.82,0H39.93a19,19,0,0,1-1.59-37.86A26.8,26.8,0,0,1,34.5,63.61,27.11,27.11,0,0,1,85,49.92a39.36,39.36,0,1,1,31,65.26ZM61.66,41.88A21.72,21.72,0,0,0,44.85,77.36,27.14,27.14,0,0,1,77.72,62.08a39.43,39.43,0,0,1,3.71-7.37A21.68,21.68,0,0,0,61.66,41.88Zm26.88-1.31a2.72,2.72,0,0,1-3.84-3.84L96.22,25.2A2.72,2.72,0,1,1,100.06,29ZM61.65,31a2.71,2.71,0,0,1-2.71-2.71V12a2.72,2.72,0,1,1,5.43,0v16.3A2.71,2.71,0,0,1,61.65,31ZM34.78,40.56,23.26,29A2.72,2.72,0,1,1,27.1,25.2L38.62,36.72a2.72,2.72,0,1,1-3.84,3.84Zm-5.71,23a2.72,2.72,0,0,1-2.72,2.72H10.06a2.72,2.72,0,0,1,0-5.44H26.35A2.72,2.72,0,0,1,29.07,63.61Zm5.33,57.05h84.31a2.62,2.62,0,0,1,.88.19,12.47,12.47,0,0,1,1.84-.19,13.58,13.58,0,0,1,.07,27.15h-.06a2.71,2.71,0,0,1,0-5.42h0a8.15,8.15,0,1,0,0-16.29h0v0H107.83v0H34.4a2.72,2.72,0,0,1,0-5.44Zm21.81,10.87,35.32,0a1,1,0,0,1,.17,0,10.85,10.85,0,0,1-.16,21.7h0a2.72,2.72,0,1,1,0-5.44h0a5.43,5.43,0,0,0,0-10.86v0H56.21a2.72,2.72,0,1,1,0-5.43Z"/></svg>