<svg id="Capa_1" data-name="Capa 1" xmlns="http://www.w3.org/2000/svg" viewBox="0 0 161.34 167.81"><defs><style>.cls-1{fill:#293f47;fill-rule:evenodd;}</style></defs><path class="cls-1" d="M73.38,94.18s0-.07,0-.11,0-.09,0-.14Zm37.9,11.46h-2.85c-.06,0-.11,0-.17,0a2.9,2.9,0,1,1,0-5.8h0v0h2.91a36.29,36.29,0,1,0-36.31-46.4,2.9,2.9,0,0,1-3.93,1.86,23.09,23.09,0,0,0-9.17-1.89A23.34,23.34,0,0,0,39.47,70.13,2.9,2.9,0,0,1,35.54,72a14.37,14.37,0,0,0-5.69-1.16,14.52,14.52,0,0,0,0,29l43.53,0v0H85a5.81,5.81,0,0,0,0-11.62h0a2.9,2.9,0,0,1-.08-5.79h-.12l.19,0a11.62,11.62,0,1,1,0,23.23c-.11,0-.22,0-.33,0H29.85a20.33,20.33,0,0,1,0-40.66,20.65,20.65,0,0,1,5,.63A29.07,29.07,0,0,1,70.26,48.86a42.11,42.11,0,1,1,41,56.78ZM23.94,111.5h90.14a3,3,0,0,1,1,.19,15.68,15.68,0,0,1,2-.19,14.52,14.52,0,0,1,.08,29H117a2.9,2.9,0,0,1,0-5.8h0a8.71,8.71,0,0,0,0-17.42h0v0H102.45v0H23.94a2.91,2.91,0,0,1,0-5.81Zm23.32,11.62,37.77,0a1.49,1.49,0,0,1,.18,0,11.6,11.6,0,0,1-.17,23.2H85a2.91,2.91,0,0,1,0-5.81h0a5.81,5.81,0,0,0,0-11.61v0H47.26a2.9,2.9,0,1,1,0-5.8Z"/></svg>