<svg id="Capa_1" data-name="Capa 1" xmlns="http://www.w3.org/2000/svg" viewBox="0 0 161.34 167.81"><defs><style>.cls-1{fill:#293f47;fill-rule:evenodd;}</style></defs><path class="cls-1" d="M111.31,109.7h-6.13c-.06,0-.11,0-.17,0a3.09,3.09,0,1,1,0-6.17h0v0h6.18a38.59,38.59,0,1,0-38.6-49.34,3.07,3.07,0,0,1-4.18,2,24.51,24.51,0,0,0-9.75-2A24.81,24.81,0,0,0,35,72a3.08,3.08,0,0,1-4.17,2,15.29,15.29,0,0,0-6.05-1.23,15.44,15.44,0,1,0,0,30.87h6.17a3.09,3.09,0,1,1,0,6.17H24.74a21.61,21.61,0,0,1,0-43.22,21.87,21.87,0,0,1,5.36.67A31,31,0,0,1,58.66,48a30.5,30.5,0,0,1,9,1.35,44.76,44.76,0,1,1,43.61,60.36ZM39,118.48a3.09,3.09,0,0,1,5.35,3.09l-3.08,5.34A3.09,3.09,0,0,1,36,123.83Zm9.27-16a3.09,3.09,0,0,1,5.35,3.08l-3.09,5.35a3.09,3.09,0,1,1-5.35-3.09Zm3.87,25.3a3.09,3.09,0,0,1,5.35,3.09l-3.09,5.35a3.09,3.09,0,1,1-5.35-3.09ZM55.61,96a3.1,3.1,0,0,1-1.13-4.22l3.09-5.35a3.09,3.09,0,0,1,5.35,3.09l-3.09,5.35A3.1,3.1,0,0,1,55.61,96Zm5.83,15.74a3.09,3.09,0,0,1,5.35,3.09l-3.09,5.34a3.09,3.09,0,0,1-5.35-3.08Zm9.26-16a3.09,3.09,0,1,1,5.35,3.08L73,104.09A3.08,3.08,0,1,1,67.62,101Zm5.39,22.82a3.09,3.09,0,0,1,5.35,3.09l-3.09,5.34A3.08,3.08,0,0,1,73,123.83Zm9.27-16a3.08,3.08,0,0,1,5.34,3.08l-3.08,5.35a3.09,3.09,0,1,1-5.35-3.09Zm9.26-16A3.09,3.09,0,0,1,100,89.48l-3.09,5.35a3.09,3.09,0,1,1-5.35-3.09Z"/></svg>