<svg id="Capa_1" data-name="Capa 1" xmlns="http://www.w3.org/2000/svg" viewBox="0 0 161.34 167.81"><defs><style>.cls-1{fill:#293f47;fill-rule:evenodd;}</style></defs><path class="cls-1" d="M117.56,122.87H112s-.1,0-.15,0a2.8,2.8,0,1,1,0-5.6h0v0h5.61a35,35,0,1,0-35-44.77,2.78,2.78,0,0,1-1.5,1.75,2.72,2.72,0,0,1-2.3,0A22.42,22.42,0,0,0,48.28,88.61a2.85,2.85,0,0,1-1.49,1.75,2.8,2.8,0,0,1-2.3,0A14,14,0,1,0,39,117.3h5.6a2.8,2.8,0,1,1,0,5.6H39a19.56,19.56,0,0,1-1.64-39.06,27.67,27.67,0,0,1-4-14.18A28,28,0,0,1,85.54,55.54a40.6,40.6,0,1,1,32,67.33ZM61.42,47.25A22.41,22.41,0,0,0,39,69.66a22.18,22.18,0,0,0,5.13,14.1,28.15,28.15,0,0,1,25.66-16.9A27.66,27.66,0,0,1,78,68.09a40.47,40.47,0,0,1,3.83-7.61A22.37,22.37,0,0,0,61.42,47.25Zm27.73-1.36a2.8,2.8,0,0,1-4-4L97.08,30a2.8,2.8,0,1,1,4,4ZM61.41,36a2.8,2.8,0,0,1-2.8-2.8V16.43a2.81,2.81,0,0,1,5.61,0V33.24A2.8,2.8,0,0,1,61.41,36ZM33.69,45.88,21.8,34a2.8,2.8,0,0,1,4-4L37.65,41.92a2.8,2.8,0,1,1-4,4ZM27.8,69.66a2.8,2.8,0,0,1-2.8,2.8H8.19a2.8,2.8,0,0,1,0-5.6H25A2.8,2.8,0,0,1,27.8,69.66ZM52,130.83a2.8,2.8,0,0,1,4.86,2.8L54,138.48a2.8,2.8,0,1,1-4.85-2.8Zm8.41-14.56a2.8,2.8,0,0,1,4.85,2.8l-2.8,4.86a2.8,2.8,0,0,1-4.85-2.81Zm3.51,23a2.8,2.8,0,0,1,4.86,2.8L66,146.89a2.8,2.8,0,1,1-4.85-2.8ZM67,110.39a2.8,2.8,0,0,1-1-3.82l2.8-4.86a2.8,2.8,0,0,1,4.86,2.8l-2.8,4.86A2.8,2.8,0,0,1,67,110.39Zm5.29,14.29a2.8,2.8,0,1,1,4.85,2.8l-2.8,4.85a2.8,2.8,0,1,1-4.85-2.8Zm8.4-14.56a2.8,2.8,0,0,1,4.86,2.8l-2.8,4.85a2.8,2.8,0,1,1-4.86-2.8Zm4.9,20.71a2.8,2.8,0,1,1,4.85,2.8l-2.8,4.85a2.8,2.8,0,1,1-4.86-2.8ZM94,116.27a2.8,2.8,0,0,1,4.85,2.8l-2.8,4.86a2.8,2.8,0,0,1-4.85-2.81Zm8.41-14.56a2.8,2.8,0,0,1,4.85,2.8l-2.8,4.86a2.8,2.8,0,0,1-4.86-2.8Z"/></svg>