<svg id="Capa_1" data-name="Capa 1" xmlns="http://www.w3.org/2000/svg" viewBox="0 0 161.34 167.81"><defs><style>.cls-1{fill:#293f47;fill-rule:evenodd;}</style></defs><path class="cls-1" d="M112.88,115h-6.07c-.06,0-.1,0-.16,0a3.06,3.06,0,1,1,0-6.11v0h6.11a38.2,38.2,0,1,0-38.2-48.83A3.07,3.07,0,0,1,72.93,62a3,3,0,0,1-2.51,0A24.45,24.45,0,0,0,37.31,77.67a3.07,3.07,0,0,1-1.63,1.91,3,3,0,0,1-2.5,0,15.28,15.28,0,1,0-6,29.34H33.3a3.06,3.06,0,1,1,0,6.11H27.19A21.39,21.39,0,1,1,32.49,73,30.59,30.59,0,0,1,69.72,55.28,44.31,44.31,0,1,1,112.88,115ZM58,112.74,73.24,88.3a1.53,1.53,0,0,1,2.66,1.49l-9,19.17,7.53,0a1.46,1.46,0,0,1,.78.19,1.56,1.56,0,0,1,.62,2.12L60.59,135.73a1.51,1.51,0,0,1-2,.5,1.53,1.53,0,0,1-.62-2l9-19.17-7.53,0a1.44,1.44,0,0,1-.77-.19A1.56,1.56,0,0,1,58,112.74Z"/></svg>