<svg id="Capa_1" data-name="Capa 1" xmlns="http://www.w3.org/2000/svg" viewBox="0 0 161.34 167.81"><defs><style>.cls-1{fill:#293f47;fill-rule:evenodd;}</style></defs><path class="cls-1" d="M113.09,112.23h-3c-.06,0-.12,0-.18,0a3.08,3.08,0,1,1,0-6.15h0v0H113A38.45,38.45,0,1,0,74.52,56.93a3.09,3.09,0,0,1-4.17,2,24.32,24.32,0,0,0-9.71-2A24.73,24.73,0,0,0,37,74.62a3.08,3.08,0,0,1-4.16,2,15.15,15.15,0,0,0-6-1.23,15.38,15.38,0,1,0,0,30.75H33a3.08,3.08,0,0,1,0,6.15H26.85a21.53,21.53,0,1,1,0-43.05,21.16,21.16,0,0,1,5.33.67A30.78,30.78,0,0,1,69.65,52.09a44.59,44.59,0,1,1,43.44,60.14ZM34.57,127.59h3.49l-1.75-3A1.54,1.54,0,1,1,39,123l1.75,3,1.74-3a1.54,1.54,0,0,1,2.67,1.54l-1.75,3h3.49a1.54,1.54,0,1,1,0,3.08H43.38l1.75,3a1.54,1.54,0,1,1-2.67,1.53l-1.72-3h-.05l-1.72,3a1.53,1.53,0,1,1-2.66-1.53l1.71-3s0,0,0-.05H34.57a1.54,1.54,0,0,1,0-3.08ZM50,136.82H53.5l-1.74-3a1.54,1.54,0,1,1,2.66-1.54l1.75,3,1.74-3a1.54,1.54,0,0,1,2.66,1.54l-1.74,3h3.49a1.54,1.54,0,1,1,0,3.07H58.83l1.74,3a1.54,1.54,0,0,1-2.66,1.54l-1.72-3-.06,0-1.71,3a1.54,1.54,0,0,1-2.66-1.54l1.71-3s0,0,0-.06H50a1.54,1.54,0,1,1,0-3.07Zm11.41-10.23a1.54,1.54,0,0,1-.56-2.1l1.71-3s0,0,0-.06H59.13a1.54,1.54,0,1,1,0-3.07h3.49l-1.75-3a1.54,1.54,0,1,1,2.67-1.54l1.74,3,1.74-3a1.54,1.54,0,1,1,2.67,1.54l-1.75,3h3.49a1.54,1.54,0,1,1,0,3.07H67.94l1.75,3A1.54,1.54,0,0,1,67,126l-1.72-3,0,0-1.71,3A1.54,1.54,0,0,1,61.43,126.59Zm13,1H78l-1.75-3A1.54,1.54,0,0,1,78.88,123l1.74,3,1.74-3A1.54,1.54,0,0,1,85,124.57l-1.75,3h3.49a1.54,1.54,0,1,1,0,3.08H83.28l1.75,3a1.54,1.54,0,0,1-2.67,1.53l-1.72-3h0l-1.71,3a1.54,1.54,0,1,1-2.67-1.53l1.71-3s0,0,0-.05H74.47a1.54,1.54,0,1,1,0-3.08ZM57.62,110.71a1.53,1.53,0,0,1-1.54,1.53H52.59l1.75,3a1.54,1.54,0,1,1-2.67,1.54l-1.72-3h-.06l-1.71,3a1.54,1.54,0,0,1-2.1.57,1.56,1.56,0,0,1-.56-2.11l1.71-3s0,0,0-.06H43.78a1.54,1.54,0,1,1,0-3.07h3.48l-1.74-3a1.54,1.54,0,0,1,.56-2.1,1.53,1.53,0,0,1,2.1.56l1.75,3,1.74-3a1.54,1.54,0,0,1,2.67,1.54l-1.75,3h3.49A1.54,1.54,0,0,1,57.62,110.71ZM70,92.18a1.54,1.54,0,0,1-1.54,1.54H64.94l1.74,3A1.54,1.54,0,0,1,64,98.28l-1.72-3-.06,0-1.71,3a1.54,1.54,0,0,1-2.67-1.54l1.71-3s0,0,0-.06H56.12a1.54,1.54,0,0,1,0-3.08h3.49l-1.75-3a1.54,1.54,0,0,1,2.67-1.54l1.74,3,1.75-3a1.54,1.54,0,0,1,2.66,1.54l-1.74,3h3.48A1.54,1.54,0,0,1,70,92.18Zm15.35,9.23A1.54,1.54,0,0,1,83.78,103H80.29L82,106a1.53,1.53,0,1,1-2.66,1.53l-1.72-3h-.06l-1.71,3A1.53,1.53,0,1,1,73.22,106l1.71-3s0,0,0,0H71.47a1.54,1.54,0,1,1,0-3.08H75l-1.74-3a1.54,1.54,0,1,1,2.66-1.54l1.74,3,1.75-3A1.54,1.54,0,0,1,82,96.85l-1.74,3h3.49A1.54,1.54,0,0,1,85.31,101.41Zm5,10.89s0,0,0-.06H86.85a1.54,1.54,0,1,1,0-3.07h3.49l-1.75-3a1.54,1.54,0,0,1,2.67-1.54l1.74,3,1.74-3a1.54,1.54,0,0,1,2.67,1.54l-1.75,3h3.49a1.54,1.54,0,1,1,0,3.07H95.66l1.75,3a1.54,1.54,0,1,1-2.67,1.54l-1.71-3H93l-1.71,3a1.54,1.54,0,1,1-2.67-1.54Zm8-13.46a1.53,1.53,0,0,1-.56-2.1l1.71-3s0,0,0-.06H96a1.54,1.54,0,0,1,0-3.08h3.49l-1.74-3a1.53,1.53,0,0,1,.56-2.1,1.55,1.55,0,0,1,2.1.56l1.74,3,1.75-3a1.54,1.54,0,0,1,2.66,1.54l-1.74,3h3.48a1.54,1.54,0,1,1,0,3.08h-3.48l1.74,3a1.54,1.54,0,0,1-2.66,1.54l-1.72-3-.06,0-1.71,3A1.55,1.55,0,0,1,98.33,98.84Z"/></svg>