<svg id="Capa_1" data-name="Capa 1" xmlns="http://www.w3.org/2000/svg" viewBox="0 0 161.34 167.81"><defs><style>.cls-1{fill:#293f47;fill-rule:evenodd;}</style></defs><path class="cls-1" d="M146.59,54.38H118.7a3.49,3.49,0,0,1,0-7h27.89a3.49,3.49,0,1,1,0,7Zm-48.81,0H14.1a3.49,3.49,0,0,1,0-7H97.78a3.49,3.49,0,0,1,0,7ZM21.08,75.3a3.49,3.49,0,1,1,0-7H49a3.49,3.49,0,0,1,0,7Zm-7,13.94H97.78a3.49,3.49,0,0,1,0,7H14.1a3.49,3.49,0,0,1,0-7Zm7,20.92H69.89a3.49,3.49,0,0,1,0,7H21.08a3.49,3.49,0,1,1,0-7Zm69.73,0h48.81a3.49,3.49,0,1,1,0,7H90.81a3.49,3.49,0,0,1,0-7ZM69.89,75.3a3.49,3.49,0,0,1,0-7h69.73a3.49,3.49,0,1,1,0,7Zm45.32,17.43a3.49,3.49,0,0,1,3.49-3.49h27.89a3.49,3.49,0,0,1,0,7H118.7A3.49,3.49,0,0,1,115.21,92.73Z"/></svg>