<svg xmlns="http://www.w3.org/2000/svg" xmlns:xlink="http://www.w3.org/1999/xlink" width="243" height="494" viewBox="0 0 243 494">
  <defs>
    <clipPath id="clip-path">
      <rect id="Rectángulo_7" data-name="Rectángulo 7" width="243" height="494" transform="translate(147)" fill="#fff" stroke="#707070" stroke-width="1"/>
    </clipPath>
    <filter id="Trazado_2" x="-137.326" y="-111.638" width="713.576" height="695.33" filterUnits="userSpaceOnUse">
      <feOffset dy="9" input="SourceAlpha"/>
      <feGaussianBlur stdDeviation="10" result="blur"/>
      <feFlood flood-opacity="0.161"/>
      <feComposite operator="in" in2="blur"/>
      <feComposite in="SourceGraphic"/>
    </filter>
    <filter id="Trazado_3" x="-86.11" y="-147.43" width="713.576" height="695.33" filterUnits="userSpaceOnUse">
      <feOffset dy="9" input="SourceAlpha"/>
      <feGaussianBlur stdDeviation="10" result="blur-2"/>
      <feFlood flood-color="#5b5b5b" flood-opacity="0.322"/>
      <feComposite operator="in" in2="blur-2"/>
      <feComposite in="SourceGraphic"/>
    </filter>
    <filter id="Trazado_1" x="-29.13" y="-153.206" width="705.802" height="691.369" filterUnits="userSpaceOnUse">
      <feOffset dy="9" input="SourceAlpha"/>
      <feGaussianBlur stdDeviation="10" result="blur-3"/>
      <feFlood flood-color="#5b5b5b" flood-opacity="0.322"/>
      <feComposite operator="in" in2="blur-3"/>
      <feComposite in="SourceGraphic"/>
    </filter>
  </defs>
  <g id="Enmascarar_grupo_1" data-name="Enmascarar grupo 1" transform="translate(-147)" clip-path="url(#clip-path)">
    <g id="Grupo_2" data-name="Grupo 2" transform="translate(39.674 -132.206)">
      <g transform="matrix(1, 0, 0, 1, 107.33, 132.21)" filter="url(#Trazado_2)">
        <path id="Trazado_2-2" data-name="Trazado 2" d="M388.444,196.9s-69.924-34.962-38.291,78.248S253.592,286.8,225.289,311.777s148.171,59.934,78.248,86.572S98.761,594.8,35.5,426.652.535,230.2,65.464,211.886,157.3,216.174,184.481,99.36,373.46-44.5,438.389,90.353,388.444,196.9,388.444,196.9Z" transform="matrix(0.45, -0.89, 0.89, 0.45, -107.33, 317.69)" fill="#d19e4d"/>
      </g>
      <g transform="matrix(1, 0, 0, 1, 107.33, 132.21)" filter="url(#Trazado_3)">
        <path id="Trazado_3-2" data-name="Trazado 3" d="M388.444,196.9s-69.924-34.962-38.291,78.248S253.592,286.8,225.289,311.777s148.171,59.934,78.248,86.572S98.761,594.8,35.5,426.652.535,230.2,65.464,211.886,157.3,216.174,184.481,99.36,373.46-44.5,438.389,90.353,388.444,196.9,388.444,196.9Z" transform="matrix(0.45, -0.89, 0.89, 0.45, -56.11, 281.89)" fill="#f8ba59"/>
      </g>
      <g transform="matrix(1, 0, 0, 1, 107.33, 132.21)" filter="url(#Trazado_1)">
        <path id="Trazado_1-2" data-name="Trazado 1" d="M388.444,188.177s-69.924-34.962-38.291,78.248-96.561,11.654-124.863,36.627,148.171,59.934,78.248,86.572S98.761,586.076,35.5,417.926.535,221.474,65.464,203.161s109.1,14.091,118.2-96.561S373.46-53.225,438.389,81.627,388.444,188.177,388.444,188.177Z" transform="matrix(0.45, -0.89, 0.89, 0.45, 0.87, 276.12)" fill="#ffca77"/>
      </g>
    </g>
  </g>
</svg>
